# xmcd CD database file
#
# Track frame offsets:
#	150
#	29561
#	75851
#	106572
#	146469
#	184586
#	220434
#
# Disc length: 3253 seconds
#
# Revision: 0
# Processed by: cddbd v1.5.2PL0 Copyright (c) Steve Scherf et al.
# Submitted via: CDex 1.70beta2
#
DISCID=510cb307
DTITLE=The Meier Group - Ribbon in the wind
DYEAR=2002
DGENRE=Jazz
TTITLE0=Arabeques
TTITLE1=Ribbon in the wind
TTITLE2=Belief
TTITLE3=Scarce
TTITLE4=Sweetness
TTITLE5=Inspiring
TTITLE6=Different Moods
EXTD=YEAR: 2002
EXTT0=
EXTT1=
EXTT2=
EXTT3=
EXTT4=
EXTT5=
EXTT6=
PLAYORDER=
